<?xml version="1.0" encoding="UTF-8"?>
<svg xmlns="http://www.w3.org/2000/svg" version="1.1" viewBox="0 0 595.28 841.89">
  <defs>
    <style>
      .cls-1 {
        fill: #fff;
        stroke-width: 0px;
      }
    </style>
  </defs>
  <g id="Layer_1" data-name="Layer 1">
    <path class="cls-1" d="M297.72,2.93l52.17,315.84,156.76.04-121.97,204.33,43.47,315.83-130.58-185.81-130.68,185.75,43.62-315.81-121.87-204.39,156.76.04L297.72,2.93Z"/>
  </g>
  <g id="Layer_2" data-name="Layer 2">
    <path class="cls-1" d="M513.28,330.69c0-6.97,4.32-12.16,9.77-12.16s9.72,5.19,9.72,12.16-4.27,12.16-9.72,12.16-9.77-5.19-9.77-12.16ZM523.04,340.45c4.58,0,7.38-3.86,7.38-9.82s-2.8-9.77-7.38-9.77-7.48,3.87-7.48,9.77,2.85,9.82,7.48,9.82ZM518.77,323.77h5.09c2.34,0,3.81,1.38,3.81,3.92,0,1.78-.87,2.95-2.14,3.31v.05c2.65.56,1.68,5.8,2.29,6.01v.2h-3.21c-.56-.56.46-4.73-1.88-4.73h-.87v4.73h-3.1v-13.48ZM522.9,329.67c1.06,0,1.68-.51,1.68-1.58,0-1.17-.61-1.58-1.68-1.58h-1.02v3.16h1.02Z"/>
  </g>
</svg>